<svg width="944" height="223" viewBox="0 0 944 223" fill="none" xmlns="http://www.w3.org/2000/svg">
<path d="M26.8809 0.416016V99.8554C26.8809 152.036 69.1813 194.336 121.361 194.336H215.041" stroke="white" stroke-width="46.08"/>
<path d="M101.76 0.416016V94.9518C101.76 110.606 114.45 123.296 130.104 123.296H215.04" stroke="white" stroke-width="46.08"/>
<path d="M278.63 220.416C276.741 220.416 275.481 219.156 275.481 217.267V3.14879C275.481 1.25952 276.741 -2.80762e-06 278.63 -2.80762e-06H308.543C310.433 -2.80762e-06 311.692 1.25952 311.692 3.14879V189.558H414.658C416.547 189.558 417.807 190.817 417.807 192.707V217.267C417.807 219.156 416.547 220.416 414.658 220.416H278.63ZM496.765 222.305C453.312 222.305 425.603 190.188 425.603 140.436C425.603 90.3706 453.312 57.9379 496.765 57.9379C517.548 57.9379 537.07 68.0141 548.091 84.3878H549.35V62.976C549.35 61.0867 550.61 59.8272 552.499 59.8272H581.153C583.043 59.8272 584.302 61.0867 584.302 62.976V192.707H601.62C603.51 192.707 604.769 193.966 604.769 195.855V217.267C604.769 219.156 603.51 220.416 601.62 220.416H578.319C559.741 220.416 550.925 212.859 550.925 197.43V196.17H549.665C538.959 212.229 518.492 222.305 496.765 222.305ZM461.184 140.436C461.184 173.814 478.502 193.966 506.527 193.966C534.236 193.966 550.61 173.814 550.61 140.436C550.61 106.744 533.921 86.2771 506.527 86.2771C478.502 86.2771 461.184 106.744 461.184 140.436ZM622.095 220.416C620.206 220.416 618.946 219.156 618.946 217.267V62.976C618.946 61.0867 620.206 59.8272 622.095 59.8272H649.175C651.064 59.8272 652.324 61.0867 652.324 62.976V84.3878H653.583C664.919 67.3843 682.552 57.9379 704.279 57.9379C740.805 57.9379 760.957 82.8135 760.957 130.36V217.267C760.957 219.156 759.698 220.416 757.808 220.416H729.154C727.265 220.416 726.005 219.156 726.005 217.267V130.36C726.005 100.762 714.985 87.5366 690.109 87.5366C665.234 87.5366 653.898 101.076 653.898 130.36V217.267C653.898 219.156 652.638 220.416 650.749 220.416H622.095ZM858.031 222.305C808.595 222.305 776.792 190.188 776.792 140.436C776.792 90.0557 808.595 57.9379 858.031 57.9379C903.689 57.9379 932.028 89.4259 932.028 140.122V148.623C932.028 150.513 930.769 151.772 928.879 151.772H812.688C815.208 178.222 830.952 193.966 858.031 193.966C879.443 193.966 892.353 185.779 896.761 172.554C897.391 170.665 898.336 170.035 900.225 170.035H927.935C930.139 170.035 931.398 170.98 931.083 172.554C925.416 201.838 899.28 222.305 858.031 222.305ZM813.003 126.267H897.706C896.132 101.391 881.017 86.2771 858.031 86.2771C831.581 86.2771 816.152 100.132 813.003 126.267Z" fill="white"/>
</svg>
